<?xml version="1.0" encoding="UTF-8"?>
<!DOCTYPE svg PUBLIC "-//W3C//DTD SVG 1.1//EN" "http://www.w3.org/Graphics/SVG/1.1/DTD/svg11.dtd">
<svg version="1.1" xmlns="http://www.w3.org/2000/svg" xmlns:xlink="http://www.w3.org/1999/xlink" width="172" height="51"  xml:space="preserve" id="builtInSampler">
    <!-- Generated by PaintCode (www.paintcodeapp.com) -->
    <g id="builtInSampler-group" transform="translate(35, 4) scale(0.75, 0.75)" >
        <rect id="builtInSampler-rectangle" stroke="none" fill="rgb(128, 128, 128)" x="0" y="0" width="174" height="63" rx="5" />
        <rect id="builtInSampler-rectangle2" stroke="none" fill="rgb(0, 0, 0)" x="96" y="7" width="20" height="20" rx="2" />
        <rect id="builtInSampler-rectangle3" stroke="none" fill="rgb(0, 0, 0)" x="121" y="7" width="20" height="20" rx="2" />
        <rect id="builtInSampler-rectangle4" stroke="none" fill="rgb(0, 0, 0)" x="147" y="7" width="20" height="20" rx="2" />
        <rect id="builtInSampler-rectangle5" stroke="none" fill="rgb(0, 0, 0)" x="96" y="36" width="20" height="20" rx="2" />
        <rect id="builtInSampler-rectangle6" stroke="none" fill="rgb(0, 0, 0)" x="121" y="36" width="20" height="20" rx="2" />
        <rect id="builtInSampler-rectangle7" stroke="none" fill="rgb(0, 0, 0)" x="147" y="36" width="20" height="20" rx="2" />
        <circle id="builtInSampler-oval" stroke="none" fill="rgb(230, 29, 29)" cx="25" cy="46" r="10" />
        <rect id="builtInSampler-rectangle8" stroke="none" fill="rgb(103, 166, 255)" x="40" y="36" width="15" height="20" />
        <path id="builtInSampler-bezier" stroke="none" fill="rgb(126, 172, 106)" d="M 65,36 C 65,55.65 65,56 65,56 L 77,45.47 C 77,45.47 71.53,41.26 65,36 Z M 65,36" />
        <rect id="builtInSampler-rectangle9" stroke="none" fill="rgb(126, 172, 106)" x="15" y="7" width="62" height="20" />
    </g>
    <g id="builtInSampler-group2" clip-path="url(#builtInSampler-rectangle10)" transform="translate(0, 8) scale(0.97, 0.95)" >
        <clipPath id="builtInSampler-rectangle10">
            <rect x="0" y="0" width="36" height="40" />
        </clipPath>
        <path id="builtInSampler-bezier3" stroke="none" fill="rgb(0, 0, 0)" d="M 305,512 L 368,512" />
        <path id="builtInSampler-bezier5" stroke="none" fill="rgb(0, 0, 0)" d="M 32.02,13.32 C 29.26,12.81 26.65,11.47 24.57,9.34 22.49,7.21 21.19,4.53 20.7,1.7 23.49,-0.1 27.54,0.54 30.35,3.42 33.15,6.29 33.77,10.45 32.02,13.32 Z M 30.09,15.29 C 27.44,14.54 24.96,13.13 22.92,11.03 20.88,8.94 19.51,6.39 18.77,3.68 17.03,6.54 17.64,10.7 20.45,13.57 23.25,16.45 27.3,17.09 30.09,15.29 Z M 19,28.04 C 15.51,28.04 13.02,30.27 10.82,32.24 8.39,34.42 6.29,36.31 3.19,35.33 2.58,34.87 2.56,34.49 2.55,34.36 2.51,33.5 3.53,32.35 4.02,31.92 4.09,31.87 4.12,31.8 4.17,31.74 4.99,32.03 5.93,31.86 6.58,31.19 L 22.45,17.79 C 21.14,17.21 19.89,16.39 18.8,15.27 17.71,14.15 16.9,12.86 16.35,11.52 L 3.28,27.8 C 2.7,28.4 2.53,29.22 2.69,29.99 2.64,30.02 2.59,30.03 2.54,30.07 2.29,30.28 0.11,32.19 0.22,34.47 0.26,35.28 0.6,36.44 2.02,37.41 L 2.3,37.55 C 3.21,37.86 4.05,38 4.85,38 7.95,38 10.27,35.92 12.36,34.05 14.43,32.19 16.39,30.43 19,30.43 25.01,30.43 29.67,37.04 29.72,37.11 30.09,37.65 30.82,37.78 31.34,37.39 31.87,37.01 31.99,36.27 31.62,35.72 31.4,35.41 26.23,28.04 19,28.04 Z M 19,28.04" />
    </g>
</svg>
