<?xml version="1.0" encoding="UTF-8"?>
<!DOCTYPE svg PUBLIC "-//W3C//DTD SVG 1.1//EN" "http://www.w3.org/Graphics/SVG/1.1/DTD/svg11.dtd">
<svg version="1.1" xmlns="http://www.w3.org/2000/svg" xmlns:xlink="http://www.w3.org/1999/xlink" width="172" height="51"  xml:space="preserve" id="examples">
    <!-- Generated by PaintCode (www.paintcodeapp.com) -->
    <g id="examples-group3" transform="scale(0.61, 0.6)" >
        <g id="examples-group">
            <path id="examples-bezier2" stroke="none" fill="rgb(58, 64, 76)" d="M 130.11,77.28 L 130.11,10.72 C 130.11,4.82 125.33,0.05 119.43,0.05 L 22.92,0.05 C 17.02,0.05 12.24,4.82 12.24,10.72 L 12.24,77.28 130.11,77.28 Z M 130.11,77.28" />
            <rect id="examples-rectangle2" stroke="none" fill="rgb(230, 29, 29)" x="19.08" y="7.72" width="104.18" height="62.4" />
            <g id="examples-group2">
                <path id="examples-bezier10" stroke="none" fill="rgb(166, 166, 166)" d="M 0.03,77.13 C 0.03,81.26 3.31,84.6 7.36,84.6 L 134.64,84.6 C 138.69,84.6 141.97,81.26 141.97,77.13 L 0.03,77.13 Z M 0.03,77.13" />
            </g>
        </g>
    </g>
    <g id="examples-group4" clip-path="url(#examples-rectangle3)" transform="translate(90, 2) scale(0.88, 0.87)" >
        <clipPath id="examples-rectangle3">
            <rect x="0" y="0" width="40" height="54" />
        </clipPath>
        <g id="examples-livello_8">
            <path id="examples-bezier" stroke="none" fill="rgb(0, 0, 0)" d="M 35.42,47.75 L 3.89,47.75 3.89,4.8 35.42,4.8 35.42,47.75 35.42,47.75 Z M 18.41,50.2 C 18.41,49.49 18.97,48.92 19.66,48.92 20.35,48.92 20.9,49.49 20.9,50.2 20.9,50.91 20.35,51.48 19.66,51.48 18.97,51.48 18.41,50.91 18.41,50.2 Z M 39.5,2.02 L 39.5,2.02 C 39.5,2 39.5,1.98 39.5,1.97 39.5,0.88 38.64,-0 37.58,-0 37.56,-0 37.55,0 37.53,0 L 37.53,-0 1.78,-0 1.78,0 C 1.77,0 1.75,-0 1.73,-0 0.67,-0 -0.19,0.88 -0.19,1.97 -0.19,1.98 -0.18,2 -0.18,2.02 L -0.19,2.02 -0.19,50.39 -0.14,50.39 C -0.14,50.4 -0.14,50.42 -0.14,50.44 -0.14,51.52 0.72,52.4 1.78,52.4 1.79,52.4 1.81,52.4 1.83,52.4 L 1.83,52.4 37.49,52.4 37.49,52.4 C 37.5,52.4 37.52,52.4 37.54,52.4 38.6,52.4 39.45,51.52 39.45,50.44 39.45,50.42 39.45,50.4 39.45,50.39 L 39.5,50.39 39.5,2.02 39.5,2.02 Z M 39.5,2.02" />
        </g>
        <g id="examples-livello_1_1_">
        </g>
        <rect id="examples-rectangle4" stroke="none" fill="rgb(255, 255, 255)" x="3.5" y="4" width="32" height="44" />
    </g>
    <g id="examples-group5" clip-path="url(#examples-rectangle5)" transform="translate(133, 4) scale(0.61, 0.67)" >
        <clipPath id="examples-rectangle5">
            <rect x="0" y="0" width="28" height="52" />
        </clipPath>
        
        <text  fill="rgb(255, 255, 11)" font-family="Verdana-Bold, Verdana, Geneva, sans-serif" font-weight="bold" font-size="20" x="168.78" y="523.81"><tspan x="168.78" y="543.81">simpleicon.com</tspan></text>
        
        <text  fill="rgb(255, 255, 11)" font-family="Verdana, Geneva, sans-serif" font-size="20" x="9.19" y="547.81"><tspan x="9.19" y="567.81">Collection Of Flat Icon, Symbols And Glyph Icons</tspan></text>
        <path id="examples-bezier3" stroke="none" fill="rgb(0, 0, 0)" d="M 28,4.16 C 28,1.86 26.13,-0 23.82,-0 L 3.94,-0 C 1.63,-0 -0.24,1.86 -0.24,4.16 L -0.24,47.84 C -0.24,50.14 1.63,52 3.94,52 L 23.82,52 C 26.13,52 28,50.14 28,47.84 L 28,4.16 Z M 11.81,4.68 L 15.99,4.68 C 16.28,4.68 16.51,4.91 16.51,5.2 16.51,5.49 16.28,5.72 15.99,5.72 L 11.81,5.72 C 11.52,5.72 11.28,5.49 11.28,5.2 11.28,4.91 11.52,4.68 11.81,4.68 Z M 13.72,49.54 C 12.57,49.54 11.63,48.61 11.63,47.46 11.63,46.31 12.57,45.38 13.72,45.38 14.88,45.38 15.81,46.31 15.81,47.46 15.81,48.61 14.88,49.54 13.72,49.54 Z M 25.39,43.68 L 2.37,43.68 2.37,8.84 25.39,8.84 25.39,43.68 Z M 25.39,43.68" />
        <rect id="examples-rectangle8" stroke="none" fill="rgb(255, 255, 255)" x="2" y="8" width="24" height="36" />
    </g>
    <rect id="examples-rectangle" stroke="rgb(0, 0, 8)" fill="rgb(255, 255, 255)" x="19" y="11" width="51" height="29" />
    <g id="examples-slider">
        <rect id="examples-sliderNotch" stroke="none" fill="rgb(0, 0, 8)" x="24" y="17" width="41" height="1" />
        <circle id="examples-oval" stroke="none" fill="rgb(0, 0, 8)" cx="32.5" cy="17.5" r="2.5" />
    </g>
    <g id="examples-slider2">
        <rect id="examples-sliderNotch2" stroke="none" fill="rgb(0, 0, 8)" x="24" y="25" width="41" height="1" />
        <circle id="examples-oval2" stroke="none" fill="rgb(0, 0, 8)" cx="57.5" cy="25.5" r="2.5" />
    </g>
    <g id="examples-slider3">
        <rect id="examples-sliderNotch3" stroke="none" fill="rgb(0, 0, 8)" x="24" y="33" width="41" height="1" />
        <circle id="examples-oval3" stroke="none" fill="rgb(0, 0, 8)" cx="46.5" cy="33.5" r="2.5" />
    </g>
    <g id="examples-slider4">
        <rect id="examples-sliderNotch4" stroke="none" fill="rgb(0, 0, 8)" x="95" y="14" width="25" height="1" />
        <circle id="examples-oval4" stroke="none" fill="rgb(0, 0, 8)" cx="103" cy="14.5" r="2" />
    </g>
    <g id="examples-slider5">
        <rect id="examples-sliderNotch5" stroke="none" fill="rgb(0, 0, 8)" x="95" y="24" width="25" height="1" />
        <circle id="examples-oval5" stroke="none" fill="rgb(0, 0, 8)" cx="112" cy="24.5" r="2" />
    </g>
    <g id="examples-slider6">
        <rect id="examples-sliderNotch6" stroke="none" fill="rgb(0, 0, 8)" x="95" y="35" width="25" height="1" />
        <circle id="examples-oval6" stroke="none" fill="rgb(0, 0, 8)" cx="107" cy="35.5" r="2" />
    </g>
    <g id="examples-slider7">
        <rect id="examples-sliderNotch7" stroke="none" fill="rgb(0, 0, 8)" x="135" y="13.5" width="12" height="1" />
        <circle id="examples-oval7" stroke="none" fill="rgb(0, 0, 8)" cx="141.5" cy="12.5" r="0.5" />
    </g>
    <g id="examples-slider8">
        <rect id="examples-sliderNotch8" stroke="none" fill="rgb(0, 0, 8)" x="135" y="21.5" width="12" height="1" />
        <circle id="examples-oval8" stroke="none" fill="rgb(0, 0, 8)" cx="141.5" cy="20.5" r="0.5" />
    </g>
    <g id="examples-slider9">
        <rect id="examples-sliderNotch9" stroke="none" fill="rgb(0, 0, 8)" x="135" y="29.5" width="12" height="1" />
        <circle id="examples-oval9" stroke="none" fill="rgb(0, 0, 8)" cx="141.5" cy="28.5" r="0.5" />
    </g>
</svg>
