<?xml version="1.0" encoding="UTF-8"?>
<!DOCTYPE svg PUBLIC "-//W3C//DTD SVG 1.1//EN" "http://www.w3.org/Graphics/SVG/1.1/DTD/svg11.dtd">
<svg version="1.1" xmlns="http://www.w3.org/2000/svg" xmlns:xlink="http://www.w3.org/1999/xlink" width="172" height="51"  xml:space="preserve" id="playgrounds">
    <!-- Generated by PaintCode (www.paintcodeapp.com) -->
    <defs>
        <pattern id="playgrounds-playground1-rectangle" x="231" y="271" width="337" height="311" patternUnits="userSpaceOnUse" viewBox="0 0 337 311">
            <image xlink:href="images/playground1.png" x="0" y="0" width="337" height="311" />
        </pattern>
    </defs>
    <g id="playgrounds-group" transform="translate(0, -10) scale(0.18, 0.18)" >
        <path id="playgrounds-bezier2" stroke="none" fill="rgb(0, 0, 0)" d="M 67,8 L 80,8 150,131 141,139 67,8 Z M 67,8" />
        <path id="playgrounds-bezier3" stroke="none" fill="rgb(0, 0, 0)" d="M 165,183 L 175,176 194,206 184,214 165,183 Z M 165,183" />
        <rect id="playgrounds-rectangle" stroke="none" fill="url(#playgrounds-playground1-rectangle)" x="231" y="170" width="50" height="50" />
        <path id="playgrounds-bezier4" stroke="none" fill="rgb(0, 0, 0)" d="M 197,285 L 250,249 259,263 207,299 197,285 Z M 197,285" />
        <path id="playgrounds-bezier5" stroke="none" fill="rgb(126, 172, 106)" d="M 134,201 L 168,234 C 168,234 214,202 220,197 226,192 300,193 300,193 300,193 294,193 302,193 310,193 322,204 322,216 322,228 314,240 302,240 290,240 246,240 246,240 L 243,240 C 243,240 179,286 168,293 157,300 145,298 138,293 131,288 81,237 75,230 69,223 70,202 79,193 88,184 155,137 162,133 169,129 178,135 181,139 184,143 190,158 181,165 172,172 134,201 134,201 Z M 134,201" />
        <ellipse id="playgrounds-oval" stroke="none" fill="rgb(126, 172, 106)" cx="54.5" cy="158" rx="34.5" ry="34" />
    </g>
    <path id="playgrounds-bezier" stroke="rgb(230, 29, 29)" stroke-width="2.5" stroke-miterlimit="10" fill="none" d="M 60.5,29.08 L 66.5,29.08 71.5,21.32 76.5,36.84 80.5,14.33 86.5,41.5 91.5,12 96.5,41.5 99.5,16.66 104.5,33.74 107.5,26.75 115.5,26.75 119.5,33.74 122.5,16.66 127.5,41.5 130.5,12 135.5,41.5 139.5,16.66 142.5,36.84 146.5,18.99 152.5,33.74 155.5,29.08 164.5,29.08" />
</svg>
