<?xml version="1.0" encoding="UTF-8"?>
<!DOCTYPE svg PUBLIC "-//W3C//DTD SVG 1.1//EN" "http://www.w3.org/Graphics/SVG/1.1/DTD/svg11.dtd">
<svg version="1.1" xmlns="http://www.w3.org/2000/svg" xmlns:xlink="http://www.w3.org/1999/xlink" width="172" height="51"  xml:space="preserve" id="synthesizerAndFX">
    <!-- Generated by PaintCode (www.paintcodeapp.com) -->
    <rect id="synthesizerAndFX-connectingCable" stroke="none" fill="rgb(0, 0, 0)" x="98" y="24" width="48" height="3" />
    <g id="synthesizerAndFX-group">
        <rect id="synthesizerAndFX-rectangle17" stroke="none" fill="rgb(103, 166, 255)" x="107" y="0" width="27" height="51" rx="2" />
        <rect id="synthesizerAndFX-rectangle" stroke="none" fill="rgb(0, 0, 0)" x="110" y="31" width="22" height="17" />
        <rect id="synthesizerAndFX-rectangle15" stroke="none" fill="rgb(103, 166, 255)" x="110" y="3" width="22" height="14" />
        
        <text  fill="rgb(0, 0, 0)" font-family="Helvetica, sans-serif" font-size="14" x="111.56" y="15" text-anchor="middle"><tspan x="120.5" y="29">FX</tspan></text>
        <circle id="synthesizerAndFX-oval3" stroke="none" fill="rgb(0, 0, 0)" cx="114.5" cy="7.5" r="2.5" />
        <circle id="synthesizerAndFX-oval4" stroke="none" fill="rgb(0, 0, 0)" cx="121.5" cy="12.5" r="2.5" />
        <circle id="synthesizerAndFX-oval5" stroke="none" fill="rgb(0, 0, 0)" cx="127.5" cy="7.5" r="2.5" />
    </g>
    <g id="synthesizerAndFX-group2" transform="translate(144, -0) scale(1.04, 1)" >
        <rect id="synthesizerAndFX-rectangle2" stroke="none" fill="rgb(230, 29, 29)" x="0" y="0" width="27" height="51" rx="2" />
        <rect id="synthesizerAndFX-rectangle3" stroke="none" fill="rgb(0, 0, 0)" x="3" y="31" width="22" height="17" />
        <rect id="synthesizerAndFX-rectangle4" stroke="none" fill="rgb(230, 29, 29)" x="3" y="3" width="22" height="14" />
        
        <text  fill="rgb(0, 0, 0)" font-family="Helvetica, sans-serif" font-size="14" x="3.9" y="15" text-anchor="middle"><tspan x="13.5" y="29">RV
</tspan></text>
        <circle id="synthesizerAndFX-oval" stroke="none" fill="rgb(0, 0, 0)" cx="7.5" cy="7.5" r="2.5" />
        <circle id="synthesizerAndFX-oval2" stroke="none" fill="rgb(0, 0, 0)" cx="14.5" cy="12.5" r="2.5" />
        <circle id="synthesizerAndFX-oval6" stroke="none" fill="rgb(0, 0, 0)" cx="20.5" cy="7.5" r="2.5" />
    </g>
    <g id="synthesizerAndFX-group3">
        <g id="synthesizerAndFX-keyboard">
            <rect id="synthesizerAndFX-keyboardBase" stroke="none" fill="rgb(126, 172, 106)" x="0" y="0" width="98" height="51" rx="7" />
            <g id="synthesizerAndFX-keys">
                <rect id="synthesizerAndFX-rectangle5" stroke="none" fill="rgb(255, 255, 255)" x="9" y="15" width="9" height="35" />
                <rect id="synthesizerAndFX-rectangle6" stroke="none" fill="rgb(255, 255, 255)" x="19" y="15" width="9" height="35" />
                <rect id="synthesizerAndFX-rectangle7" stroke="none" fill="rgb(255, 255, 255)" x="29" y="15" width="9" height="35" />
                <rect id="synthesizerAndFX-rectangle8" stroke="none" fill="rgb(255, 255, 255)" x="39" y="15" width="9" height="35" />
                <rect id="synthesizerAndFX-rectangle9" stroke="none" fill="rgb(255, 255, 255)" x="49" y="15" width="9" height="35" />
                <rect id="synthesizerAndFX-rectangle10" stroke="none" fill="rgb(255, 255, 255)" x="59" y="15" width="9" height="35" />
                <rect id="synthesizerAndFX-rectangle11" stroke="none" fill="rgb(255, 255, 255)" x="69" y="15" width="9" height="35" />
                <rect id="synthesizerAndFX-rectangle12" stroke="none" fill="rgb(255, 255, 255)" x="79" y="15" width="9" height="35" />
                <rect id="synthesizerAndFX-rectangle13" stroke="none" fill="rgb(0, 0, 8)" x="16" y="15" width="5" height="18" />
                <rect id="synthesizerAndFX-rectangle14" stroke="none" fill="rgb(0, 0, 8)" x="26" y="15" width="5" height="18" />
                <rect id="synthesizerAndFX-rectangle16" stroke="none" fill="rgb(0, 0, 8)" x="46" y="15" width="5" height="18" />
                <rect id="synthesizerAndFX-rectangle18" stroke="none" fill="rgb(0, 0, 8)" x="56" y="15" width="5" height="18" />
                <rect id="synthesizerAndFX-rectangle19" stroke="none" fill="rgb(0, 0, 8)" x="66" y="15" width="5" height="18" />
            </g>
            <g id="synthesizerAndFX-slider">
                <rect id="synthesizerAndFX-sliderNotch" stroke="none" fill="rgb(255, 255, 255)" x="11" y="7" width="25" height="1" />
                <circle id="synthesizerAndFX-oval7" stroke="none" fill="rgb(255, 255, 255)" cx="22.5" cy="7.5" r="2.5" />
            </g>
            <g id="synthesizerAndFX-slider2">
                <rect id="synthesizerAndFX-sliderNotch2" stroke="none" fill="rgb(255, 255, 255)" x="41" y="7" width="25" height="1" />
                <circle id="synthesizerAndFX-oval8" stroke="none" fill="rgb(255, 255, 255)" cx="52.5" cy="7.5" r="2.5" />
            </g>
        </g>
    </g>
</svg>
